<svg width="40.000000" height="40.000000" viewBox="0 0 40 40" fill="none" xmlns="http://www.w3.org/2000/svg" xmlns:xlink="http://www.w3.org/1999/xlink">
	<desc>
			Created with Pixso.
	</desc>
	<defs>
		<clipPath id="clip15_773">
			<rect id="user-m 2" width="20.000000" height="20.000000" transform="translate(10.000000 10.000000)" fill="white" fill-opacity="0"/>
		</clipPath>
	</defs>
	<rect id="Rectangle 32" x="0.500000" y="0.500000" width="39.000000" height="39.000000" stroke="#000000" stroke-opacity="0.400000" stroke-width="1.000000" stroke-dasharray="5 5"/>
	<rect id="user-m 2" width="20.000000" height="20.000000" transform="translate(10.000000 10.000000)" fill="#FFFFFF" fill-opacity="0"/>
	<g clip-path="url(#clip15_773)">
		<path id="Vector" d="M20.0002 11.6667C17.9292 11.6667 16.2502 13.3456 16.2502 15.4167C16.2502 17.4877 17.9292 19.1667 20.0002 19.1667C22.0713 19.1667 23.7502 17.4877 23.7502 15.4167C23.7502 13.3456 22.0713 11.6667 20.0002 11.6667ZM17.9167 15.4167C17.9167 14.2661 18.8496 13.3333 20.0002 13.3333C21.1506 13.3333 22.0835 14.2661 22.0835 15.4167C22.0835 16.5673 21.1506 17.5 20.0002 17.5C18.8496 17.5 17.9167 16.5673 17.9167 15.4167ZM20.0002 20.4167C16.3184 20.4167 13.3335 23.4014 13.3335 27.0833L13.3335 28.3333L26.6667 28.3333L26.6667 27.0833C26.6667 23.4014 23.6821 20.4167 20.0002 20.4167ZM20.0002 22.0833C22.6213 22.0833 24.7712 24.1002 24.9832 26.6667L15.0173 26.6667C15.229 24.1002 17.3792 22.0833 20.0002 22.0833Z" fill="#000000" fill-opacity="1.000000" fill-rule="evenodd"/>
	</g>
</svg>
