<svg width="18.000000" height="18.000000" viewBox="0 0 18 18" fill="none" xmlns="http://www.w3.org/2000/svg" xmlns:xlink="http://www.w3.org/1999/xlink">
	<desc>
			Created with Pixso.
	</desc>
	<defs>
		<clipPath id="clip531_910">
			<rect id="calendar-m 1" width="18.000000" height="18.000000" fill="white" fill-opacity="0"/>
		</clipPath>
	</defs>
	<g opacity="0.300000">
		<rect id="calendar-m 1" width="18.000000" height="18.000000" fill="#FFFFFF" fill-opacity="0"/>
		<g clip-path="url(#clip531_910)">
			<path id="Vector" d="M4.5 7.03L6.37 7.03L6.37 8.9L4.5 8.9L4.5 7.03ZM6.37 10.59L4.5 10.59L4.5 12.46L6.37 12.46L6.37 10.59ZM8.06 7.03L9.93 7.03L9.93 8.9L8.06 8.9L8.06 7.03ZM9.93 10.59L8.06 10.59L8.06 12.46L9.93 12.46L9.93 10.59ZM11.62 7.03L13.5 7.03L13.5 8.9L11.62 8.9L11.62 7.03ZM13.5 10.59L11.62 10.59L11.62 12.46L13.5 12.46L13.5 10.59Z" fill="#000000" fill-opacity="1.000000" fill-rule="nonzero"/>
			<path id="Vector" d="M3.75 3.75L1.5 3.75L1.5 15.75L16.5 15.75L16.5 3.75L14.25 3.75L14.25 1.5L12.75 1.5L12.75 3.75L5.25 3.75L5.25 1.5L3.75 1.5L3.75 3.75ZM3 5.25L3 14.25L15 14.25L15 5.25L3 5.25Z" fill="#000000" fill-opacity="1.000000" fill-rule="evenodd"/>
		</g>
	</g>
</svg>
