<svg width="32.000000" height="32.000000" viewBox="0 0 32 32" fill="none" xmlns="http://www.w3.org/2000/svg" xmlns:xlink="http://www.w3.org/1999/xlink">
	<desc>
			Created with Pixso.
	</desc>
	<defs>
		<clipPath id="clip763_3205">
			<rect id="calendar-m 3" width="32.000000" height="32.000000" fill="white" fill-opacity="0"/>
		</clipPath>
	</defs>
	<g opacity="0.200000">
		<rect id="calendar-m 3" width="32.000000" height="32.000000" fill="#FFFFFF" fill-opacity="0"/>
		<g clip-path="url(#clip763_3205)">
			<path id="Vector" d="M8 12.5L11.33 12.5L11.33 15.83L8 15.83L8 12.5ZM11.33 18.83L8 18.83L8 22.16L11.33 22.16L11.33 18.83ZM14.33 12.5L17.66 12.5L17.66 15.83L14.33 15.83L14.33 12.5ZM17.66 18.83L14.33 18.83L14.33 22.16L17.66 22.16L17.66 18.83ZM20.66 12.5L24 12.5L24 15.83L20.66 15.83L20.66 12.5ZM24 18.83L20.66 18.83L20.66 22.16L24 22.16L24 18.83Z" fill="#000000" fill-opacity="1.000000" fill-rule="nonzero"/>
			<path id="Vector" d="M6.66 6.66L2.66 6.66L2.66 28L29.33 28L29.33 6.66L25.33 6.66L25.33 2.66L22.66 2.66L22.66 6.66L9.33 6.66L9.33 2.66L6.66 2.66L6.66 6.66ZM5.33 9.33L5.33 25.33L26.66 25.33L26.66 9.33L5.33 9.33Z" fill="#000000" fill-opacity="1.000000" fill-rule="evenodd"/>
		</g>
	</g>
</svg>
