<svg width="16.000000" height="16.000000" viewBox="0 0 16 16" fill="none" xmlns="http://www.w3.org/2000/svg" xmlns:xlink="http://www.w3.org/1999/xlink">
	<desc>
			Created with Pixso.
	</desc>
	<defs>
		<clipPath id="clip763_4492">
			<rect id="close-circle-m 1" width="16.000000" height="16.000000" fill="white" fill-opacity="0"/>
		</clipPath>
	</defs>
	<g opacity="0.300000">
		<rect id="close-circle-m 1" width="16.000000" height="16.000000" fill="#FFFFFF" fill-opacity="0"/>
		<g clip-path="url(#clip763_4492)">
			<path id="Vector" d="M8.94 8L10.82 6.11L9.88 5.17L8 7.05L6.11 5.17L5.17 6.11L7.05 8L5.17 9.88L6.11 10.82L8 8.94L9.88 10.82L10.82 9.88L8.94 8Z" fill="#000000" fill-opacity="1.000000" fill-rule="nonzero"/>
			<path id="Vector" d="M1.33 8C1.33 4.31 4.31 1.33 8 1.33C11.68 1.33 14.66 4.31 14.66 8C14.66 11.68 11.68 14.66 8 14.66C4.31 14.66 1.33 11.68 1.33 8ZM8 2.66C5.05 2.66 2.66 5.05 2.66 8C2.66 10.94 5.05 13.33 8 13.33C10.94 13.33 13.33 10.94 13.33 8C13.33 5.05 10.94 2.66 8 2.66Z" fill="#000000" fill-opacity="1.000000" fill-rule="evenodd"/>
		</g>
	</g>
</svg>
