<svg width="24.000000" height="24.000000" viewBox="0 0 24 24" fill="none" xmlns="http://www.w3.org/2000/svg" xmlns:xlink="http://www.w3.org/1999/xlink">
	<desc>
			Created with Pixso.
	</desc>
	<defs/>
	<g opacity="0.300000">
		<path id="Cross" d="M11.9999 13.9238L2.30447 23.6201C1.77153 24.1523 1.03139 24.123 0.454163 23.5459C-0.123062 22.9688 -0.152649 22.2285 0.380188 21.6953L10.0756 12L0.380341 2.30469C-0.152603 1.77148 -0.12291 1.03125 0.454315 0.454102C1.03154 -0.123047 1.77158 -0.152344 2.30463 0.380859L11.9999 10.0762L21.6953 0.379883C22.2282 -0.152344 22.9683 -0.123047 23.5456 0.454102C24.1229 1.03125 24.1524 1.77148 23.6196 2.30469L13.9241 12L23.6197 21.6953C24.1526 22.2285 24.1231 22.9688 23.5457 23.5459C22.9684 24.123 22.2283 24.1523 21.6954 23.6201L11.9999 13.9238Z" clip-rule="evenodd" fill="#202124" fill-opacity="1.000000" fill-rule="evenodd"/>
	</g>
</svg>
