<svg width="24.000000" height="24.000000" viewBox="0 0 24 24" fill="none" xmlns="http://www.w3.org/2000/svg" xmlns:xlink="http://www.w3.org/1999/xlink">
	<desc>
			Created with Pixso.
	</desc>
	<defs>
		<clipPath id="clip771_3293">
			<rect id="eye-closed-m 1" width="24.000000" height="24.000000" transform="translate(0.000000 -0.500000)" fill="white" fill-opacity="0"/>
		</clipPath>
	</defs>
	<rect id="eye-closed-m 1" width="24.000000" height="24.000000" transform="translate(0.000000 -0.500000)" fill="#FFFFFF" fill-opacity="0"/>
	<g clip-path="url(#clip771_3293)">
		<path id="Vector" d="M3.25 2.83L5.94 5.52C7.42 4.37 9.4 3.5 12 3.5C15.88 3.5 18.4 5.46 19.91 7.38C20.66 8.33 21.16 9.28 21.48 9.99C21.65 10.35 21.76 10.64 21.84 10.86C21.88 10.96 21.9 11.05 21.92 11.11C21.93 11.14 21.94 11.17 21.95 11.19C21.95 11.19 21.95 11.19 21.95 11.2C21.95 11.2 21.95 11.21 21.95 11.21C21.95 11.21 21.95 11.21 21.96 11.22L21.96 11.22L21.96 11.22C21.96 11.22 21.96 11.22 21 11.5C21.96 11.77 21.96 11.77 21.96 11.77L21.96 11.77L21.96 11.77C21.95 11.78 21.95 11.78 21.95 11.78L21.95 11.79C21.95 11.79 21.95 11.79 21.95 11.79C21.95 11.8 21.95 11.8 21.95 11.8C21.94 11.82 21.93 11.85 21.92 11.88C21.9 11.94 21.88 12.03 21.84 12.13C21.76 12.35 21.65 12.65 21.48 13C21.16 13.71 20.66 14.66 19.91 15.61C19.38 16.28 18.74 16.95 17.96 17.54L20.66 20.25L19.41 21.5L2 4.08L3.25 2.83ZM18.33 14.38C17.85 14.99 17.26 15.6 16.53 16.11L14.43 14.01L14.51 13.93C15.12 13.3 15.5 12.44 15.5 11.5C15.5 9.56 13.93 8 12 8C11.05 8 10.19 8.37 9.56 8.98L9.48 9.06L7.36 6.95C8.52 6.1 10.04 5.5 12 5.5C15.11 5.5 17.09 7.03 18.33 8.61C18.96 9.41 19.39 10.21 19.66 10.81C19.79 11.09 19.88 11.33 19.94 11.5C19.88 11.66 19.79 11.9 19.66 12.18C19.39 12.78 18.96 13.58 18.33 14.38ZM13.07 12.54L13.01 12.6L10.89 10.48L10.95 10.42C11.22 10.15 11.59 10 12 10C12.82 10 13.5 10.67 13.5 11.5C13.5 11.9 13.34 12.27 13.07 12.54ZM20.03 11.77C20.03 11.77 20.03 11.77 20.03 11.77L20.03 11.77Z" fill="#000000" fill-opacity="1.000000" fill-rule="evenodd"/>
		<path id="Vector" d="M3.41 8.32C3.02 8.94 2.72 9.52 2.51 9.99C2.34 10.34 2.23 10.64 2.15 10.86C2.11 10.96 2.09 11.05 2.07 11.11C2.06 11.14 2.05 11.17 2.04 11.19C2.04 11.19 2.04 11.2 2.04 11.21C2.04 11.21 2.04 11.21 2.03 11.21L2.03 11.22L2.03 11.22C2.03 11.22 2.03 11.22 3 11.5L2.03 11.22L1.96 11.5L2.03 11.77L3 11.5C2.03 11.77 2.03 11.77 2.03 11.77L2.03 11.77L2.03 11.77L2.04 11.78L2.04 11.78C2.04 11.79 2.04 11.79 2.04 11.8C2.05 11.82 2.06 11.85 2.07 11.88C2.09 11.94 2.11 12.02 2.15 12.13C2.23 12.35 2.34 12.64 2.51 13C2.83 13.71 3.33 14.66 4.08 15.61C5.59 17.53 8.11 19.5 12 19.5C12.83 19.5 13.61 19.4 14.33 19.24L12.56 17.48C12.38 17.49 12.19 17.5 12 17.5C8.88 17.5 6.9 15.96 5.66 14.38C5.03 13.58 4.6 12.78 4.33 12.18C4.2 11.9 4.11 11.66 4.05 11.5C4.11 11.33 4.2 11.09 4.33 10.81C4.47 10.51 4.64 10.16 4.86 9.78L3.41 8.32ZM21 11.5L21.96 11.22L22.04 11.5L21.96 11.77L21 11.5Z" fill="#000000" fill-opacity="1.000000" fill-rule="nonzero"/>
	</g>
</svg>
