<svg width="16.000000" height="16.000000" viewBox="0 0 16 16" fill="none" xmlns="http://www.w3.org/2000/svg" xmlns:xlink="http://www.w3.org/1999/xlink">
	<desc>
			Created with Pixso.
	</desc>
	<defs>
		<clipPath id="clip865_3611">
			<rect id="bx-info-square 1" width="16.000000" height="16.000000" fill="white" fill-opacity="0"/>
		</clipPath>
	</defs>
	<g opacity="0.300000">
		<rect id="bx-info-square 1" width="16.000000" height="16.000000" fill="#FFFFFF" fill-opacity="0"/>
		<g clip-path="url(#clip865_3611)">
			<path id="Vector" d="M13.33 2L2.66 2C2.49 2 2.32 2.07 2.19 2.19C2.07 2.32 2 2.48 2 2.66L2 13.33C2 13.51 2.07 13.67 2.19 13.8C2.32 13.92 2.49 14 2.66 14L13.33 14C13.5 14 13.67 13.92 13.8 13.8C13.92 13.67 14 13.51 14 13.33L14 2.66C14 2.48 13.92 2.32 13.8 2.19C13.67 2.07 13.5 2 13.33 2ZM12.66 12.66L3.33 12.66L3.33 3.33L12.66 3.33L12.66 12.66Z" fill="#171A1E" fill-opacity="1.000000" fill-rule="nonzero"/>
			<path id="Vector" d="M7.33 4.66L8.66 4.66L8.66 6L7.33 6L7.33 4.66ZM7.33 7.33L8.66 7.33L8.66 11.33L7.33 11.33L7.33 7.33Z" fill="#171A1E" fill-opacity="1.000000" fill-rule="nonzero"/>
		</g>
	</g>
</svg>
