<svg width="10.000000" height="8.000000" viewBox="0 0 10 8" fill="none" xmlns="http://www.w3.org/2000/svg" xmlns:xlink="http://www.w3.org/1999/xlink">
	<desc>
			Created with Pixso.
	</desc>
	<defs/>
	<path id="Vector" d="M4.19 7.28C4.23 7.35 4.29 7.4 4.36 7.44C4.44 7.48 4.52 7.5 4.6 7.5C4.68 7.5 4.76 7.48 4.83 7.44C4.9 7.4 4.96 7.35 5.01 7.28L9.51 0.78C9.56 0.7 9.59 0.62 9.6 0.53C9.6 0.43 9.58 0.34 9.54 0.26C9.5 0.18 9.43 0.11 9.36 0.07C9.28 0.02 9.19 0 9.1 0L0.1 0C0.01 0 -0.08 0.02 -0.16 0.07C-0.24 0.12 -0.3 0.18 -0.35 0.26C-0.39 0.34 -0.41 0.43 -0.4 0.53C-0.4 0.62 -0.37 0.7 -0.31 0.78L4.19 7.28Z" fill="#171A1E" fill-opacity="1.000000" fill-rule="nonzero"/>
</svg>
