<svg width="32.000000" height="32.000000" viewBox="0 0 32 32" fill="none" xmlns="http://www.w3.org/2000/svg" xmlns:xlink="http://www.w3.org/1999/xlink">
	<desc>
			Created with Pixso.
	</desc>
	<defs>
		<clipPath id="clip763_3208">
			<rect id="List" width="32.000000" height="32.000000" fill="white" fill-opacity="0"/>
		</clipPath>
	</defs>
	<rect id="List" width="32.000000" height="32.000000" fill="#FFFFFF" fill-opacity="0"/>
	<g clip-path="url(#clip763_3208)">
		<path id="Vector" d="M4 6L8 6L8 9.75L4 9.75L4 6ZM4 14.12L8 14.12L8 17.87L4 17.87L4 14.12ZM8 22.25L4 22.25L4 26L8 26L8 22.25Z" fill="#000000" fill-opacity="1.000000" fill-rule="nonzero"/>
		<path id="Vector" d="M12 6L29 6L29 9.75L12 9.75L12 6ZM12 14.12L29 14.12L29 17.87L12 17.87L12 14.12ZM29 22.25L12 22.25L12 26L29 26L29 22.25Z" fill="#000000" fill-opacity="1.000000" fill-rule="nonzero"/>
	</g>
</svg>
