<svg width="12.000000" height="15.000000" viewBox="0 0 12 15" fill="none" xmlns="http://www.w3.org/2000/svg" xmlns:xlink="http://www.w3.org/1999/xlink">
	<desc>
			Created with Pixso.
	</desc>
	<defs/>
	<path id="Vector" d="M5.62 -0.5C2.31 -0.5 -0.38 2.18 -0.38 5.5C-0.38 6.6 0 7.71 0.52 8.71C1.05 9.72 1.74 10.68 2.42 11.5C3.09 12.33 3.77 13.03 4.28 13.52C4.53 13.77 4.74 13.96 4.89 14.1C4.96 14.17 5.02 14.22 5.07 14.26C5.09 14.27 5.1 14.29 5.11 14.3C5.12 14.3 5.12 14.3 5.12 14.31L5.13 14.31L5.13 14.31C5.13 14.31 5.13 14.31 5.62 13.75L5.13 14.31L5.62 14.73L6.11 14.31L5.62 13.75C6.11 14.31 6.11 14.31 6.11 14.31L6.11 14.31L6.12 14.31C6.12 14.3 6.12 14.3 6.13 14.3C6.14 14.29 6.15 14.27 6.17 14.26C6.22 14.22 6.28 14.17 6.35 14.1C6.5 13.96 6.71 13.77 6.96 13.52C7.47 13.03 8.15 12.33 8.82 11.5C9.5 10.68 10.19 9.72 10.72 8.71C11.24 7.71 11.62 6.6 11.62 5.5C11.62 2.18 8.93 -0.5 5.62 -0.5ZM5.92 12.45C5.81 12.55 5.71 12.65 5.62 12.73C5.53 12.65 5.43 12.55 5.32 12.45C4.84 11.98 4.21 11.32 3.57 10.55C2.94 9.78 2.32 8.91 1.86 8.02C1.39 7.13 1.12 6.27 1.12 5.5C1.12 3.01 3.13 1 5.62 1C8.11 1 10.12 3.01 10.12 5.5C10.12 6.27 9.85 7.13 9.38 8.02C8.92 8.91 8.3 9.78 7.67 10.55C7.03 11.32 6.4 11.98 5.92 12.45Z" fill="#171A1E" fill-opacity="1.000000" fill-rule="evenodd"/>
</svg>
