<svg width="28.000000" height="28.000000" viewBox="0 0 28 28" fill="none" xmlns="http://www.w3.org/2000/svg" xmlns:xlink="http://www.w3.org/1999/xlink">
	<desc>
			Created with Pixso.
	</desc>
	<defs>
		<clipPath id="clip565_1063">
			<rect id="location-m 1" width="28.000000" height="28.000000" transform="translate(-0.875000 0.000000)" fill="white" fill-opacity="0"/>
		</clipPath>
	</defs>
	<g opacity="0.300000">
		<rect id="location-m 1" width="28.000000" height="28.000000" transform="translate(-0.875000 0.000000)" fill="#FFFFFF" fill-opacity="0"/>
		<g clip-path="url(#clip565_1063)">
			<path id="Vector" d="M13.12 7.58C10.86 7.58 9.04 9.41 9.04 11.66C9.04 13.92 10.86 15.75 13.12 15.75C15.38 15.75 17.2 13.92 17.2 11.66C17.2 9.41 15.38 7.58 13.12 7.58ZM11.37 11.66C11.37 10.7 12.15 9.91 13.12 9.91C14.09 9.91 14.87 10.7 14.87 11.66C14.87 12.63 14.09 13.41 13.12 13.41C12.15 13.41 11.37 12.63 11.37 11.66Z" fill="#000000" fill-opacity="1.000000" fill-rule="evenodd"/>
			<path id="Vector" d="M13.12 2.33C7.97 2.33 3.79 6.51 3.79 11.66C3.79 13.38 4.38 15.1 5.19 16.66C6.01 18.24 7.08 19.73 8.14 21.01C9.19 22.29 10.24 23.38 11.03 24.14C11.42 24.53 11.75 24.84 11.98 25.05C12.1 25.15 12.19 25.23 12.26 25.29C12.29 25.32 12.31 25.34 12.33 25.36C12.34 25.36 12.34 25.36 12.35 25.37L12.35 25.37L12.36 25.38C12.36 25.38 12.36 25.38 13.12 24.5L12.36 25.38L13.12 26.03L13.88 25.38L13.12 24.5C13.88 25.38 13.88 25.38 13.88 25.38L13.89 25.37L13.9 25.37C13.9 25.36 13.9 25.36 13.91 25.36C13.93 25.34 13.95 25.32 13.98 25.29C14.05 25.23 14.14 25.15 14.26 25.05C14.49 24.84 14.82 24.53 15.21 24.14C16 23.38 17.05 22.29 18.1 21.01C19.16 19.73 20.23 18.24 21.05 16.66C21.86 15.1 22.45 13.38 22.45 11.66C22.45 6.51 18.27 2.33 13.12 2.33ZM13.58 22.48C13.41 22.64 13.26 22.79 13.12 22.92C12.98 22.79 12.83 22.64 12.66 22.48C11.91 21.75 10.92 20.72 9.94 19.52C8.95 18.32 7.98 16.97 7.27 15.59C6.54 14.2 6.12 12.86 6.12 11.66C6.12 7.8 9.25 4.66 13.12 4.66C16.99 4.66 20.12 7.8 20.12 11.66C20.12 12.86 19.7 14.2 18.97 15.59C18.26 16.97 17.29 18.32 16.3 19.52C15.32 20.72 14.33 21.75 13.58 22.48Z" fill="#000000" fill-opacity="1.000000" fill-rule="evenodd"/>
		</g>
	</g>
</svg>
