<svg width="69.000000" height="72.000000" viewBox="0 0 69 72" fill="none" xmlns="http://www.w3.org/2000/svg" xmlns:xlink="http://www.w3.org/1999/xlink">
	<desc>
			Created with Pixso.
	</desc>
	<defs>
		<clipPath id="clip15_747">
			<rect id="Logo" width="69.000000" height="72.000000" fill="white" fill-opacity="0"/>
		</clipPath>
	</defs>
	<rect id="Logo" width="69.000000" height="72.000000" fill="#FFFFFF" fill-opacity="0"/>
	<g clip-path="url(#clip15_747)">
		<path id="Vector (Stroke)" d="M39.5417 21.94C39.5579 21.9579 39.575 21.9753 39.593 21.9919C39.6108 22.0086 39.6294 22.0244 39.6484 22.0392C39.6636 22.0512 39.6782 22.0626 39.6919 22.0732C39.708 22.0854 39.73 22.102 39.7546 22.1186C39.7664 22.1267 39.7871 22.1403 39.813 22.1552C39.8259 22.1627 39.8459 22.1738 39.8708 22.1856C39.8835 22.1917 39.8999 22.1991 39.9192 22.2068C39.9377 22.2143 39.9636 22.2238 39.9946 22.233C40.0247 22.2417 40.0696 22.2531 40.1255 22.26C40.1543 22.2635 40.1892 22.2663 40.229 22.2662C40.2688 22.2661 40.3174 22.263 40.3721 22.2532C40.4817 22.2335 40.6299 22.1832 40.7661 22.0634C40.8333 22.0042 40.8889 21.9355 40.9319 21.8609C40.9744 21.7872 41.001 21.7141 41.0166 21.6479C41.0322 21.5823 41.0374 21.523 41.0381 21.4739C41.0386 21.4248 41.0347 21.3818 41.0293 21.347C41.0193 21.2793 41.0022 21.2257 40.9897 21.1915C40.9766 21.1557 40.9629 21.1267 40.9526 21.1062C40.9421 21.0851 40.9321 21.0675 40.9241 21.0541C40.9082 21.0279 40.8938 21.0074 40.8845 20.9943C40.8745 20.9806 40.8655 20.9691 40.8586 20.9606C40.8455 20.944 40.8337 20.9305 40.8257 20.9216C40.8096 20.9038 40.7947 20.8882 40.7839 20.8773C40.7617 20.8548 40.7378 20.832 40.7168 20.8126C40.6958 20.7931 40.6714 20.7711 40.6472 20.7505C40.6355 20.7406 40.6191 20.7269 40.6003 20.7124C40.5908 20.7051 40.5769 20.6945 40.5598 20.6827C40.551 20.6767 40.5393 20.6688 40.5254 20.6601C40.512 20.6518 40.4915 20.6395 40.4656 20.6262C40.4524 20.6194 40.4353 20.611 40.4148 20.6022C40.395 20.5936 40.3674 20.5826 40.3337 20.572C40.3015 20.5619 40.252 20.5486 40.1902 20.5408C40.1584 20.5368 40.1196 20.5338 40.0752 20.5345C40.031 20.5352 39.9771 20.5396 39.9172 20.5524C39.8567 20.5652 39.7878 20.5869 39.7166 20.6232C39.644 20.66 39.5735 20.7095 39.51 20.7731C39.4463 20.8368 39.397 20.9074 39.3606 20.9798C39.325 21.0511 39.3037 21.1198 39.2917 21.1801C39.2795 21.24 39.2761 21.2935 39.2761 21.3376C39.2761 21.3818 39.28 21.4204 39.2847 21.4519C39.2937 21.5131 39.3083 21.562 39.3191 21.5939C39.3306 21.6271 39.3423 21.6543 39.3516 21.6738C39.3608 21.6939 39.3696 21.7107 39.377 21.7237C39.3911 21.7491 39.4041 21.7693 39.4128 21.7823C39.4299 21.8081 39.4456 21.8283 39.4546 21.8397C39.4731 21.8633 39.4915 21.8844 39.5046 21.8993C39.5164 21.9123 39.5288 21.926 39.5417 21.94ZM40.6875 20.8083C40.6875 20.8083 40.6873 20.8082 40.6868 20.8077C40.6873 20.8081 40.6875 20.8083 40.6875 20.8083ZM40.7224 20.841C40.7227 20.841 40.7229 20.8412 40.7231 20.8418C40.7227 20.8412 40.7224 20.841 40.7224 20.841Z" fill="#171A1E" fill-opacity="1.000000" fill-rule="evenodd"/>
		<path id="Vector (Stroke)" d="M37.5752 20.5513C36.2961 19.9796 34.8582 19.8547 33.4978 20.1969C32.1372 20.5391 30.9351 21.3282 30.0886 22.4344C29.2424 23.5407 28.8022 24.8984 28.8406 26.2844C28.8789 27.6704 29.3936 29.0023 30.2998 30.0612C31.2061 31.1202 32.4502 31.8432 33.8276 32.1115C35.2051 32.3798 36.6338 32.1774 37.8794 31.5375C39.125 30.8977 40.113 29.8585 40.6814 28.5907C41.2498 27.3228 41.3645 25.9018 41.0068 24.561C40.8928 24.1332 41.1514 23.6951 41.5847 23.5824C42.0178 23.4697 42.4614 23.7251 42.5754 24.1529C43.0271 25.8452 42.8821 27.6389 42.1648 29.2392C41.4473 30.8395 40.2002 32.1512 38.6279 32.9588C37.0559 33.7664 35.2522 34.0219 33.5137 33.6832C31.7751 33.3446 30.2048 32.432 29.0608 31.0954C27.917 29.7587 27.2673 28.0776 27.219 26.3282C27.1707 24.5787 27.7261 22.8651 28.7944 21.4687C29.8625 20.0723 31.3801 19.0764 33.0974 18.6444C34.8147 18.2125 36.6296 18.3702 38.2441 19.0918C38.6521 19.2742 38.8333 19.7487 38.6487 20.1518C38.4639 20.5548 37.9834 20.7337 37.5752 20.5513Z" fill="#171A1E" fill-opacity="1.000000" fill-rule="evenodd"/>
		<path id="Vector (Stroke)" d="M27.0066 11.0807C27.1382 10.7947 27.427 10.6111 27.7451 10.6111L41.4316 10.6111C41.7498 10.6111 42.0386 10.7947 42.1702 11.0807L44.2339 15.566L50.5857 15.566C52.0356 15.566 53.4524 16.5743 53.4524 18.0858L53.4524 36.1209C53.4524 37.6325 52.0388 38.639 50.5857 38.639L24.7063 38.639C24.2583 38.639 23.895 38.2804 23.895 37.838C23.895 37.3956 24.2583 37.037 24.7063 37.037L50.5857 37.037C51.4075 37.037 51.8301 36.5074 51.8301 36.1209L51.8301 18.0858C51.8301 17.6992 51.4038 17.1681 50.5857 17.1681L43.7117 17.1681C43.3936 17.1681 43.1047 16.9844 42.9731 16.6984L40.9092 12.2131L28.2673 12.2131L26.2036 16.6984C26.0718 16.9844 25.7832 17.1681 25.4651 17.1681L18.4146 17.1681C17.594 17.1681 17.1699 17.6984 17.1699 18.0858L17.1699 36.1209C17.1699 36.5066 17.5952 37.037 18.4146 37.037L20.0728 37.037C20.5205 37.037 20.8838 37.3956 20.8838 37.838C20.8838 38.2804 20.5205 38.639 20.0728 38.639L18.4146 38.639C16.9658 38.639 15.5479 37.6333 15.5479 36.1209L15.5479 18.0858C15.5479 16.5751 16.9602 15.566 18.4146 15.566L24.9426 15.566L27.0066 11.0807Z" fill="#171A1E" fill-opacity="1.000000" fill-rule="evenodd"/>
		<path id="Vector" d="M9.6062 48.3536L6.65479 57.5868L3.47559 57.5868L0.52417 48.3536L1.91504 48.3536L4.43994 56.3722L5.70923 56.3722L8.25317 48.3536L9.6062 48.3536Z" fill="#171A1E" fill-opacity="1.000000" fill-rule="nonzero"/>
		<path id="Vector (Stroke)" d="M0.290527 48.1844L2.04126 48.1844L4.56616 56.203L5.5835 56.203L8.1272 48.1844L9.84009 48.1844L6.78052 57.756L3.3501 57.756L0.290527 48.1844ZM0.758057 48.5227L3.60132 57.4176L6.5293 57.4176L9.37256 48.5227L8.37891 48.5227L5.83521 56.5414L4.31396 56.5414L1.78906 48.5227L0.758057 48.5227Z" fill="#171A1E" fill-opacity="1.000000" fill-rule="evenodd"/>
		<path id="Vector" d="M16.8179 53.6029L15.2146 53.6029L15.2146 57.5868L13.8801 57.5868L13.8801 48.3536L15.2146 48.3536L15.2146 52.3358L16.7905 52.3358L20.2163 48.3536L21.7666 48.3536L17.8936 52.8501L21.8472 57.5868L20.1582 57.5868L16.8179 53.6029Z" fill="#171A1E" fill-opacity="1.000000" fill-rule="nonzero"/>
		<path id="Vector (Stroke)" d="M13.709 48.1844L15.386 48.1844L15.386 52.1667L16.7114 52.1667L20.1372 48.1844L22.1375 48.1844L18.1172 52.8518L22.2104 57.756L20.0776 57.756L16.7375 53.7721L15.386 53.7721L15.386 57.756L13.709 57.756L13.709 48.1844ZM14.0515 48.5228L14.0515 57.4177L15.0435 57.4177L15.0435 53.4338L16.8987 53.4338L20.2388 57.4177L21.4841 57.4177L17.6704 52.8484L21.3962 48.5228L20.2959 48.5228L16.8699 52.505L15.0435 52.505L15.0435 48.5228L14.0515 48.5228Z" fill="#171A1E" fill-opacity="1.000000" fill-rule="evenodd"/>
		<path id="Vector" d="M31.6729 55.4756L26.6641 55.4756L25.9961 57.5868L24.6462 57.5868L27.5977 48.3536L30.7769 48.3536L33.7283 57.5868L32.3391 57.5868L31.6729 55.4756ZM31.2976 54.2626L29.8159 49.5665L28.5466 49.5665L27.0513 54.2626L31.2976 54.2626Z" fill="#171A1E" fill-opacity="1.000000" fill-rule="nonzero"/>
		<path id="Vector (Stroke)" d="M27.4719 48.1844L30.9023 48.1844L33.9619 57.756L32.2129 57.756L31.5466 55.6448L26.7898 55.6448L26.1218 57.756L24.4124 57.756L27.4719 48.1844ZM27.7231 48.5227L24.8799 57.4176L25.8699 57.4176L26.5381 55.3064L31.7986 55.3064L32.4651 57.4176L33.4944 57.4176L30.6511 48.5227L27.7231 48.5227ZM28.4209 49.3973L29.9419 49.3973L31.5303 54.4318L26.8176 54.4318L28.4209 49.3973ZM28.6721 49.7357L27.2844 54.0935L31.0647 54.0935L29.6897 49.7357L28.6721 49.7357Z" fill="#171A1E" fill-opacity="1.000000" fill-rule="evenodd"/>
		<path id="Vector" d="M45.9504 52.9786C45.9504 55.577 44.1331 57.5952 41.0754 57.5952L37.8704 57.5952L37.8704 48.3535L41.0754 48.3535C44.1331 48.3535 45.9504 50.3717 45.9504 52.9786ZM44.5476 52.9786C44.5476 50.9333 43.2114 49.6273 41.0754 49.6273L39.2048 49.6273L39.2048 56.3281L41.0754 56.3281C43.2114 56.3197 44.5476 55.0086 44.5476 52.9786Z" fill="#171A1E" fill-opacity="1.000000" fill-rule="nonzero"/>
		<path id="Vector (Stroke)" d="M37.699 48.1844L41.0752 48.1844C42.6436 48.1844 43.908 48.7029 44.7808 49.5692C45.6531 50.435 46.1216 51.6359 46.1216 52.9787C46.1216 54.3173 45.6528 55.5161 44.7808 56.3808C43.908 57.246 42.6436 57.7644 41.0752 57.7644L37.699 57.7644L37.699 48.1844ZM38.0415 48.5227L38.0415 57.4261L41.0752 57.4261C42.5647 57.4261 43.7378 56.9355 44.5381 56.142C45.3391 55.3479 45.7791 54.2384 45.7791 52.9787C45.7791 51.7145 45.3389 50.6029 44.5381 49.8078C43.7375 49.0134 42.5647 48.5227 41.0752 48.5227L38.0415 48.5227ZM39.0334 49.4582L41.0752 49.4582C42.179 49.4582 43.0933 49.7963 43.7324 50.4153C44.3718 51.0346 44.7188 51.9189 44.7188 52.9787C44.7188 54.0312 44.3716 54.9127 43.7324 55.5322C43.0935 56.1514 42.1797 56.493 41.0759 56.4974L41.0752 56.4974L39.0334 56.4974L39.0334 49.4582ZM39.376 49.7966L39.376 56.159L41.075 56.159C42.1072 56.1549 42.9292 55.8367 43.4924 55.2908C44.0552 54.7451 44.3762 53.9562 44.3762 52.9787C44.3762 51.9932 44.0552 51.2018 43.4924 50.6568C42.9294 50.1115 42.1077 49.7966 41.0752 49.7966L39.376 49.7966Z" fill="#171A1E" fill-opacity="1.000000" fill-rule="evenodd"/>
		<path id="Vector" d="M53.5095 53.7602L51.7625 53.7602L51.7625 57.5868L50.4263 57.5868L50.4263 48.3536L54.5134 48.3536C56.437 48.3536 57.5059 49.5276 57.5059 51.0603C57.5059 52.4136 56.6631 53.5014 55.1079 53.7247L58.2202 57.5902L56.5415 57.5902L53.5095 53.7602ZM51.7625 52.5608L54.4329 52.5608C55.5017 52.5608 56.103 52.0195 56.103 51.0569C56.103 50.0943 55.5017 49.553 54.4329 49.553L51.7625 49.553L51.7625 52.5608Z" fill="#171A1E" fill-opacity="1.000000" fill-rule="nonzero"/>
		<path id="Vector (Stroke)" d="M50.2551 48.1844L54.5137 48.1844C55.5112 48.1844 56.3049 48.4896 56.8503 49.0106C57.3955 49.5317 57.6775 50.2544 57.6775 51.0603C57.6775 51.7721 57.4553 52.4227 57.0205 52.9261C56.6379 53.3692 56.0977 53.6896 55.4197 53.84L58.5754 57.7594L56.4583 57.7594L53.4263 53.9294L51.9338 53.9294L51.9338 57.756L50.2551 57.756L50.2551 48.1844ZM50.5977 48.5228L50.5977 57.4177L51.5913 57.4177L51.5913 53.5911L53.5933 53.5911L56.6252 57.4211L57.8652 57.4211L54.7883 53.5997L55.0833 53.5573C55.825 53.4508 56.385 53.1406 56.76 52.7065C57.1355 52.2718 57.3347 51.7019 57.3347 51.0603C57.3347 50.3336 57.0823 49.7029 56.6121 49.2538C56.1421 48.8047 55.4395 48.5228 54.5137 48.5228L50.5977 48.5228ZM51.5913 49.3839L54.4331 49.3839C54.9949 49.3839 55.4592 49.5262 55.7844 49.819C56.1118 50.1139 56.2744 50.54 56.2744 51.0569C56.2744 51.5739 56.1118 51.9999 55.7844 52.2949C55.4592 52.5876 54.9949 52.73 54.4331 52.73L51.5913 52.73L51.5913 49.3839ZM51.9338 49.7222L51.9338 52.3917L54.4331 52.3917C54.9399 52.3917 55.3108 52.2634 55.5535 52.0448C55.7939 51.8285 55.9319 51.5025 55.9319 51.0569C55.9319 50.6113 55.7939 50.2854 55.5535 50.069C55.3108 49.8505 54.9399 49.7222 54.4331 49.7222L51.9338 49.7222Z" fill="#171A1E" fill-opacity="1.000000" fill-rule="evenodd"/>
		<path id="Vector" d="M63.5684 49.5952L63.5684 52.351L68.1094 52.351L68.1094 53.591L63.5684 53.591L63.5684 56.3484L68.5103 56.3484L68.5103 57.5885L62.2322 57.5885L62.2322 48.3535L68.5103 48.3535L68.5103 49.5952L63.5684 49.5952Z" fill="#171A1E" fill-opacity="1.000000" fill-rule="nonzero"/>
		<path id="Vector (Stroke)" d="M62.0608 48.1844L68.6814 48.1844L68.6814 49.7644L63.7395 49.7644L63.7395 52.1819L68.2805 52.1819L68.2805 53.7602L63.7395 53.7602L63.7395 56.1793L68.6814 56.1793L68.6814 57.7577L62.0608 57.7577L62.0608 48.1844ZM62.4033 48.5227L62.4033 57.4193L68.3389 57.4193L68.3389 56.5177L63.397 56.5177L63.397 53.4219L67.938 53.4219L67.938 52.5202L63.397 52.5202L63.397 49.4261L68.3389 49.4261L68.3389 48.5227L62.4033 48.5227Z" fill="#171A1E" fill-opacity="1.000000" fill-rule="evenodd"/>
		<path id="Vector (Stroke)" d="M0.000732422 0.801872C0.000732422 0.359482 0.36377 0.000854492 0.811768 0.000854492L68.1897 0.000854492C68.6377 0.000854492 69.0007 0.359482 69.0007 0.801872L69.0007 41.4396C69.0007 41.882 68.6377 42.2407 68.1897 42.2407C67.7417 42.2407 67.3787 41.882 67.3787 41.4396L67.3787 1.60288L1.6228 1.60288L1.6228 41.4396C1.6228 41.882 1.25977 42.2407 0.811768 42.2407C0.36377 42.2407 0.000732422 41.882 0.000732422 41.4396L0.000732422 0.801872Z" fill="#171A1E" fill-opacity="1.000000" fill-rule="evenodd"/>
		<path id="Vector (Stroke)" d="M0.812012 62.6119C1.26001 62.6119 1.62305 62.9706 1.62305 63.4129L1.62305 70.3971L67.3789 70.3971L67.3789 63.4129C67.3789 62.9706 67.7419 62.6119 68.1899 62.6119C68.6379 62.6119 69.001 62.9706 69.001 63.4129L69.001 71.1981C69.001 71.6405 68.6379 71.9991 68.1899 71.9991L0.812012 71.9991C0.364014 71.9991 0.000976562 71.6405 0.000976562 71.1981L0.000976562 63.4129C0.000976562 62.9706 0.364014 62.6119 0.812012 62.6119Z" fill="#171A1E" fill-opacity="1.000000" fill-rule="evenodd"/>
	</g>
</svg>
