<svg width="24.000000" height="24.000000" viewBox="0 0 24 24" fill="none" xmlns="http://www.w3.org/2000/svg" xmlns:xlink="http://www.w3.org/1999/xlink">
	<desc>
			Created with Pixso.
	</desc>
	<defs>
		<clipPath id="clip752_2555">
			<rect id="phone-m 1" width="24.000000" height="24.000000" fill="white" fill-opacity="0"/>
		</clipPath>
	</defs>
	<g opacity="0.300000">
		<rect id="phone-m 1" width="24.000000" height="24.000000" fill="#FFFFFF" fill-opacity="0"/>
		<g clip-path="url(#clip752_2555)">
			<path id="Vector" d="M5.46 10.93C7.74 13.71 10.29 16.26 13.06 18.53L13.78 19.12C14.98 20.1 16.71 20.01 17.8 18.92L19.49 17.24L16.31 14.06L13.65 16.71L7.28 10.33L9.94 7.69L6.76 4.51L5.08 6.19C3.99 7.28 3.9 9.02 4.88 10.21L5.46 10.93ZM11.8 20.08C8.91 17.72 6.28 15.08 3.92 12.2L3.33 11.48C1.7 9.49 1.85 6.6 3.66 4.78L6.76 1.68L12.77 7.69L10.11 10.34L13.65 13.88L16.31 11.23L22.32 17.24L19.22 20.34C17.4 22.15 14.51 22.3 12.52 20.67L11.8 20.08Z" fill="#000000" fill-opacity="1.000000" fill-rule="evenodd"/>
		</g>
	</g>
</svg>
