<svg width="24.000000" height="24.000000" viewBox="0 0 24 24" fill="none" xmlns="http://www.w3.org/2000/svg" xmlns:xlink="http://www.w3.org/1999/xlink">
	<desc>
			Created with Pixso.
	</desc>
	<defs>
		<clipPath id="clip752_2545">
			<rect id="user-m 1" width="24.000000" height="24.000000" fill="white" fill-opacity="0"/>
		</clipPath>
	</defs>
	<g opacity="0.300000">
		<rect id="user-m 1" width="24.000000" height="24.000000" fill="#FFFFFF" fill-opacity="0"/>
		<g clip-path="url(#clip752_2545)">
			<path id="Vector" d="M12 2C9.51 2 7.5 4.01 7.5 6.5C7.5 8.98 9.51 11 12 11C14.48 11 16.5 8.98 16.5 6.5C16.5 4.01 14.48 2 12 2ZM9.5 6.5C9.5 5.11 10.61 4 12 4C13.38 4 14.5 5.11 14.5 6.5C14.5 7.88 13.38 9 12 9C10.61 9 9.5 7.88 9.5 6.5ZM12 12.5C7.58 12.5 4 16.08 4 20.5L4 22L20 22L20 20.5C20 16.08 16.41 12.5 12 12.5ZM12 14.5C15.14 14.5 17.72 16.92 17.97 20L6.02 20C6.27 16.92 8.85 14.5 12 14.5Z" fill="#000000" fill-opacity="1.000000" fill-rule="evenodd"/>
		</g>
	</g>
</svg>
